<svg height="512" viewBox="0 0 60 60" width="512" xmlns="http://www.w3.org/2000/svg"><g id="Page-1" fill="none" fill-rule="evenodd"><g id="012---Ophidiophobia" fill-rule="nonzero" transform="translate(0 -1)"><path id="Shape" d="m51.38 28.83c-.7004283.8190833-1.4998814 1.5479964-2.38 2.17-6.61 4.72-6.09 9.43-10.21 16.67-.0025041.0150374-.0094725.0289743-.02.04-.0132174.0256141-.0300572.0491898-.05.07-1.081564 1.9073496-2.8947009 3.2906791-5.02 3.83-.5187025-3.5120423-.7527974-7.0602527-.7-10.61 0-1.6568542-1.3431458-3-3-3s-3 1.3431458-3 3c.0527974 3.5497473-.1812975 7.0979577-.7 10.61-2.1252991-.5393209-3.938436-1.9226504-5.02-3.83-.0199428-.0208102-.0367826-.0443859-.05-.07-.0105275-.0110257-.0174959-.0249626-.02-.04-4.12-7.24-3.6-11.95-10.21-16.67-.8801186-.6220036-1.67957172-1.3509167-2.38-2.17 3.5628924.685768 7.2535606.0380326 10.37-1.82-.17.3-2.8 5.18 3.01 10.99 0 0 0-9 2-11 0 0 5-2 6-3 1 1 6 3 6 3 2 2 2 11 2 11 5.81-5.81 3.18-10.69 3.01-10.99 3.1164394 1.8580326 6.8071076 2.505768 10.37 1.82z" fill="#ef314c"/><path id="Shape" d="m48.133 29.1c-.6391343.7096761-1.3544414 1.3468461-2.133 1.9-6.61 4.72-6.09 9.43-10.21 16.67-.0025041.0150374-.0094725.0289743-.02.04-.0132174.0256141-.0300572.0491898-.05.07-.5986146.9507197-1.3508297 1.7955255-2.226 2.5.061.451.128.9.206 1.326 2.1252991-.5393209 3.938436-1.9226504 5.02-3.83.0199428-.0208102.0367826-.0443859.05-.07.0105275-.0110257.0174959-.0249626.02-.04 4.12-7.236 3.6-11.946 10.21-16.666.8801186-.6220036 1.6795717-1.3509167 2.38-2.17-1.0676029.2197927-2.1577576.3104431-3.247.27z" fill="#bb193b"/><path id="Shape" d="m21.21 47.67c-1.5405398-2.6845317-3.2821874-5.2485311-5.21-7.67-6-7-15-8-15-18 0-.97.05-1.88.13-2.72.34 1.71 1.52 4.03 5.13 5.12.46026837 1.6286645 1.26509781 3.1394249 2.36 4.43.70042828.8190833 1.4998814 1.5479964 2.38 2.17 6.61 4.72 6.09 9.43 10.21 16.67z" fill="#008a00"/><path id="Shape" d="m58.85 19.37v.02c-.37 1.7-1.57 3.94-5.11 5.01-1.5434619.4242203-3.1395162.6262525-4.74.6-1.9430597.0105875-3.8781869-.2485513-5.75-.77-4.99-1.41-7.99-4.23-13.25-4.23s-8.26 2.82-13.25 4.23c-1.8718131.5214487-3.8069403.7805875-5.75.77-1.60048381.0262525-3.19653806-.1757797-4.74-.6-3.61-1.09-4.79-3.41-5.13-5.12.8-7.84 4.87-10.28 4.87-10.28-.57565829-1.60890548-.91256709-3.29344945-1-5 0 0 2-2 8-2 1.4184578-.01638735 2.8270033.23816906 4.15.75 2.5656362-.63414845 5.2107004-.8868616 7.85-.75 4 0 5 2 5 2s1-2 5-2c2.6392996-.1368616 5.2843638.11585155 7.85.75 1.3229967-.51183094 2.7315422-.76638735 4.15-.75 6 0 8 2 8 2-.0527245 1.8510868-.7615683 3.62319609-2 5 0 0 4.93 2.46 5.85 10.37z" fill="#60a917"/><path id="Shape" d="m53 9c1.2384317-1.37680391 1.9472755-3.1489132 2-5 0 0-2-2-8-2-.439 0-.856.025-1.259.065 4.645.335 6.259 1.935 6.259 1.935-.0527245 1.8510868-.7615683 3.62319609-2 5 0 0 4.93 2.46 5.85 10.37v.02c-.37 1.7-1.57 3.94-5.11 5.01-1.0624974.2990965-2.1541328.4828238-3.256.548.487.032.989.052 1.516.052 1.6004838.0262525 3.1965381-.1757797 4.74-.6 3.54-1.07 4.74-3.31 5.11-5.01v-.02c-.92-7.91-5.85-10.37-5.85-10.37z" fill="#549414"/><path id="Shape" d="m59 22c0 10-9 11-15 18-1.9278126 2.4214689-3.6694602 4.9854683-5.21 7.67 4.12-7.24 3.6-11.95 10.21-16.67.8801186-.6220036 1.6795717-1.3509167 2.38-2.17 1.0949022-1.2905751 1.8997316-2.8013355 2.36-4.43 3.54-1.07 4.74-3.31 5.11-5.01.1032813.8661179.1533752 1.7377524.15 2.61z" fill="#008a00"/><path id="Shape" d="m58.85 19.39c-.3685781 1.7001142-1.4322779 3.1681868-2.933 4.048-.73 7.558-7.2 9.483-12.625 14.259-1.389 2.849-2.261 6.036-4.5 9.973 1.5398982-2.6844661 3.280876-5.2484638 5.208-7.67 6-7 15-8 15-18 .0033752-.8722476-.0467187-1.7438821-.15-2.61z" fill="#007900"/><path id="Shape" d="m10 8s7 2 9 5c0 0 0 4-5 4s-5-8-4-9z" fill="#ffeb3a"/><path id="Shape" d="m49 8s-7 2-9 5c0 0 0 4 5 4s5-8 4-9z" fill="#ffeb3a"/><path id="Shape" d="m49 8s-1.142.329-2.63.913c.453 2.111-.024 6.873-3.139 7.88.5787974.1421115 1.1730297.2116457 1.769.207 5 0 5-8 4-9z" fill="#fdd834"/><path id="Shape" d="m53.74 24.4c-.4602684 1.6286645-1.2650978 3.1394249-2.36 4.43-3.5628924.685768-7.2535606.0380326-10.37-1.82l-.01-.01s-3 1-5 0c0 0-5-2-6-3-1 1-6 3-6 3-2 1-5 0-5 0l-.01.01c-3.1164394 1.8580326-6.8071076 2.505768-10.37 1.82-1.09490219-1.2905751-1.89973163-2.8013355-2.36-4.43 1.54346194.4242203 3.13951619.6262525 4.74.6 1.9430597.0105875 3.8781869-.2485513 5.75-.77 4.99-1.41 7.99-4.23 13.25-4.23s8.26 2.82 13.25 4.23c1.8718131.5214487 3.8069403.7805875 5.75.77 1.6004838.0262525 3.1965381-.1757797 4.74-.6z" fill="#e91e63"/><path id="Shape" d="m50.573 24.939c-.4781758 1.4240942-1.2223497 2.7444685-2.193 3.891-.44.092-.87.152-1.294.2 1.4329401.1597027 2.8821083.0922054 4.294-.2 1.0949022-1.2905751 1.8997316-2.8013355 2.36-4.43-1.0336466.2911071-2.0952488.4717839-3.167.539z" fill="#ad1457"/><path id="Shape" d="m24 27c-2 2-2 11-2 11-5.81-5.81-3.18-10.69-3.01-10.99l.01-.01s3 1 5 0z" fill="#f5f5f5"/><path id="Shape" d="m38 38s0-9-2-11c2 1 5 0 5 0l.01.01c.17.3 2.8 5.18-3.01 10.99z" fill="#f5f5f5"/><path id="Shape" d="m35 60c-1.5593735-2.0870257-3.2283863-4.0898411-5-6-1.7716137 1.9101589-3.4406265 3.9129743-5 6 .0734482-2.3631338.4088328-4.7108261 1-7 .11-.44.21-.91.3-1.39.5187025-3.5120423.7527974-7.0602527.7-10.61 0-1.6568542 1.3431458-3 3-3s3 1.3431458 3 3c-.0527974 3.5497473.1812975 7.0979577.7 10.61.09.48.19.95.3 1.39.5911672 2.2891739.9265518 4.6368662 1 7z" fill="#f44335"/><path id="Shape" d="m30 41c-.0527974 3.5497473.1812975 7.0979577.7 10.61.09.48.19.95.3 1.39.243.974.427 1.887.566 2.714 1.707 1.986 3.434 4.286 3.434 4.286-.0734482-2.3631338-.4088328-4.7108261-1-7-.11-.44-.21-.91-.3-1.39-.5187025-3.5120423-.7527974-7.0602527-.7-10.61.0066008-1.0742218-.5650918-2.0689688-1.4965825-2.6040585-.9314908-.5350896-2.0787924-.5278093-3.0034175.0190585.9268768.5308381 1.4990459 1.516876 1.5 2.585z" fill="#c81e1e"/><path id="Shape" d="m14 14c-.5522847 0-1-.4477153-1-1-.0403459-1.3248937.374334-2.6236359 1.175-3.68.2215047-.28045349.5758036-.42143187.9294358-.36982994.3536321.05160192.6528724.28794459.785.62.1321275.33205541.0770689.70937644-.1444358.98982994-.5198075.7043312-.7827274 1.5654379-.745 2.44 0 .2652165-.1053568.5195704-.2928932.7071068s-.4418903.2928932-.7071068.2928932z" fill="#607d8b"/><path id="Shape" d="m45 14c-.5522847 0-1-.4477153-1-1 .0377274-.8745621-.2251925-1.7356688-.745-2.44-.2215047-.2804535-.2765633-.65777454-.1444358-.98982997s.4313678-.5683981.785-.62000002.7079311.08937648.9294358.36982999c.800666 1.0563641 1.2153459 2.3551063 1.175 3.68 0 .5522847-.4477153 1-1 1z" fill="#607d8b"/><g fill="#000"><path id="Shape" d="m59.843 19.254c-.716-6.161-3.737-9.239-5.361-10.474.9400101-1.42147924 1.4656406-3.07662667 1.518-4.78-.0000566-.26519481-.1054506-.51950727-.293-.707-.234-.235-2.473-2.293-8.707-2.293-1.4264625-.00825605-2.8435208.23130394-4.188.708-2.5597697-.58963793-5.1879316-.82782772-7.812-.708-1.7916183-.11523299-3.5652957.41474181-5 1.494-1.4347043-1.07925819-3.2083817-1.60923299-5-1.494-2.6240795-.12032662-5.2523091.11786929-7.812.708-1.3444434-.47683396-2.761526-.71639807-4.188-.708-6.234 0-8.473 2.058-8.707 2.293-.18754937.18749273-.29294336.44180519-.293.707.06931503 1.57331909.34948277 3.13021762.833 4.629-1.281 1.09-4.043 4.139-4.699 10.556-.089.936-.134 1.883-.134 2.815 0 7.059 4.185 9.986 8.615 13.084 2.438707 1.5632353 4.6657256 3.4343208 6.626 5.567 1.4663627 1.7523127 2.7757424 3.6302168 3.913 5.612.407.674.788 1.3 1.173 1.885.0305515.0596352.0667149.1162242.108.169l.019.026c1.0589423 1.8179879 2.7121032 3.2154581 4.681 3.957-.035.155-.068.312-.105.461-.6123547 2.3670111-.9578389 4.7951276-1.03 7.239 0 .4304304.2754301.8125693.6837722.9486833.4083422.136114.8579696-.004339 1.1162278-.3486833.026-.035 2.334-3.106 4.2-5.149 1.866 2.043 4.174 5.114 4.2 5.149.1888544.2518058.4852427.4.8.4.1073623-.0002469.2140111-.0174592.316-.051.4085428-.1360719.6841037-.5183926.684-.949-.0718634-2.4452143-.4173499-4.874689-1.03-7.243-.037-.149-.07-.306-.1-.461 1.9540121-.7327269 3.5972612-2.1140446 4.655-3.913.012-.016.015-.024.025-.039.0398452-.0521747.0756174-.1073374.107-.165v-.005c.391-.589.777-1.227 1.19-1.911 1.1372576-1.9817832 2.4466373-3.8596873 3.913-5.612 1.9602744-2.1326792 4.187293-4.0037647 6.626-5.567 4.429-3.098 8.614-6.025 8.614-13.084.0028582-.8962024-.0475641-1.7917821-.151-2.682-.001-.018-.003-.042-.006-.064zm-53.329-9.396c.40234196-.24092392.58321696-.72907852.435-1.174-.46740046-1.35994975-.77644113-2.7692557-.921-4.2.747-.479 2.822-1.484 6.972-1.484 1.2936947-.01428078 2.5783715.21679818 3.786.681 2.4687451 1.03319291 4.3796211 3.07029662 5.253 5.6.1518783.53102177.7054782.8383783 1.2365.68649996.5310218-.1518783.8383783-.70547818.6865-1.23649996-.7302192-2.20364921-2.111706-4.13396499-3.962-5.536 1.6611661-.16639332 3.3309206-.23151375 5-.195 2.68 0 3.708.956 4 1.31v2.69c0 .55228475.4477153 1 1 1s1-.44771525 1-1v-2.685c.307-.373 1.34-1.315 4-1.315 1.6690791-.03647171 3.338831.02864861 5 .195-1.8504964 1.40036516-3.2329637 3.32884602-3.965 5.531-.1521544.53102179.1549782 1.08484555.686 1.237.5310218.1521544 1.0848456-.15497821 1.237-.686.8751719-2.53029328 2.7877992-4.56732494 5.258-5.6 1.2071038-.46317316 2.4911829-.6929093 3.784-.677 4.153 0 6.228 1.006 6.967 1.474-.1241177 1.42212553-.7123123 2.7640104-1.674 3.819-.2270047.22660886-.3315302.54835651-.2810473.86511222.050483.31675571.2498466.59007102.5360473.73488778.182.093 4.433 2.358 5.29 9.417-.344 1.414-1.388 3.227-4.38 4.131-1.452142.3959401-2.9530572.5841437-4.458.559-1.8509552.0087875-3.6942929-.2375293-5.478-.732-1.6690139-.5078363-3.2953873-1.1464821-4.864-1.91-1.2301418-.589776-2.4924667-1.10993-3.781-1.558.7748676-.7179877 1.1870001-1.7455664 1.123-2.8.1213426-1.4940053-.3374117-2.9773468-1.281-4.142-.3128947-.4078865-.5886612-.8429549-.824-1.3-.1596977-.3197527-.4778505-.5300187-.8346134-.5515927-.3567628-.0215741-.6979349.1488213-.895.447-.1970651.2981786-.2200843.67884-.0603866.9985927.2858189.5581217.6204568 1.0898615 1 1.589.6875254.8240066 1.0105824 1.8920798.895 2.959 0 1.7-1.29 2-4 2s-4-.3-4-2c-.1155995-1.0692844.2093713-2.1395217.9-2.964.3795432-.4991385.7141811-1.0308783 1-1.589.1596977-.3197527.1366785-.7004141-.0603866-.9985928-.1970651-.2981786-.5382372-.4685741-.895-.447-.3567629.0215741-.6749157.2318401-.8346134.5515928-.2353388.4570451-.5111053.8921135-.824 1.3-.9466148 1.1651982-1.407259 2.6506502-1.286 4.147-.0640001 1.0544336.3481324 2.0820123 1.123 2.8-1.2884482.4467644-2.5507716.9655824-3.781 1.554-1.5676406.763106-3.1930109 1.4014175-4.861 1.909-1.7844361.4964455-3.6288081.7444481-5.481.737-1.50256153.0249151-3.00108772-.1629477-4.451-.558-3.047-.919-4.078-2.774-4.4-4.222.766-7.04 4.224-9.274 4.365-9.362zm44.321 18.051c-3.1834992.5312813-6.4524489-.0736602-9.235-1.709l-.018-.01c-.0912188-.0637792-.1926849-.1114683-.3-.141-.017 0-.033-.011-.051-.015-.1145705-.0273589-.2331411-.0337956-.35-.019h-.023c-.0569001.0063119-.1131232.0176904-.168.034-1.3932701.485785-2.9086212.4938772-4.307.023h-.005c-1.9805738-.7250831-3.8793598-1.6565441-5.665-2.779-.3904999-.3903819-1.0235001-.3903819-1.414 0-1.7837659 1.121491-3.6805311 2.0522768-5.659 2.777l-.029.012-.058.023c-1.328.665-3.509.187-4.239-.054-.0435398-.0125429-.0880158-.0215719-.133-.027-.022 0-.043-.011-.065-.014-.1025938-.0103725-.2061787-.0046365-.307.017-.0356128.0068618-.0706992.0162182-.105.028-.0940439.0272782-.1836408.0680347-.266.121l-.021.012-.009.006c-2.7841 1.640084-6.0568728 2.2472676-9.244 1.715-.52721916-.6620004-.97432233-1.3840116-1.332-2.151 1.04804353.1634151 2.10729537.2443302 3.168.242 2.0349602.0092059 4.0614409-.2626966 6.022-.808 1.7683714-.5330536 3.4912121-1.2068743 5.152-2.015 2.555-1.168 4.761-2.177 7.826-2.177s5.271 1.009 7.826 2.177c1.6617617.8085337 3.3856053 1.4826886 5.155 2.016 1.959639.5446919 3.9850903.8162551 6.019.807 1.0607033.0022932 2.1199522-.0786217 3.168-.242-.3574522.7673292-.8049306 1.4894042-1.333 2.151zm-11.907 7.472c-.0729476-2.3515815-.4308955-4.6856305-1.066-6.951.8629036.0252401 1.7255811-.0573996 2.568-.246.409 1.202.857 3.89-1.502 7.197zm-19.358-7.2c.8403538.1917987 1.7012793.2784623 2.563.258-.63229 2.2613897-.9885473 4.5909967-1.061 6.938-2.358-3.302-1.911-5.989-1.502-7.192zm-9.809 5.265c-4.069-2.846-7.335-5.132-7.722-10.374.95914692.9603221 2.12967614 1.6829133 3.418 2.11.50028811 1.5263455 1.28700064 2.9433105 2.318 4.175.02816225.0377458.05890232.0734978.092.107.74951081.8865265 1.60681267 1.6759698 2.552 2.35 2.4367624 1.6649039 4.3616806 3.9755675 5.559 6.673-1.8937244-1.8893695-3.977055-3.5786198-6.217-5.041zm20.946 19.847c-.3904999-.3903819-1.0235001-.3903819-1.414 0-.929.929-2.051 2.255-3 3.434.1665336-1.1723394.3938397-2.3352389.681-3.484.109-.435.2-.9.291-1.367.0020678-.0062487.0047475-.0122779.008-.018 0-.011 0-.022 0-.032.5374533-3.5827707.7805992-7.2035382.727-10.826 0-1.1045695.8954305-2 2-2s2 .8954305 2 2c-.0526064 3.6225438.1915429 7.2433118.73 10.826v.032c.0032525.0057221.0059322.0117513.008.018.087.472.182.932.291 1.367.2871603 1.1487611.5144664 2.3116606.681 3.484-.952-1.179-2.074-2.505-3.003-3.434zm3.8-3.012c-.3709672-3.0793216-.540328-6.1795927-.507-9.281 0-2.209139-1.790861-4-4-4s-4 1.790861-4 4c.0356506 3.1012547-.1313718 6.2015252-.5 9.281-1.4190718-.6413572-2.6022225-1.7101786-3.384-3.057l-.024-.035-.007-.013c-1.1505126-2.0707596-2.1481691-4.2228234-2.985-6.439-1.557-3.892-2.9-7.253-7.52-10.551-.035-.025-.062-.051-.1-.076 2.0089783-.0211391 3.9962304-.4183181 5.859-1.171-.35 2.255.01 5.829 3.949 9.768.2855081.2895108.717888.3773215 1.0937117.2221186.3758237-.1552028.6202532-.5225137.6182883-.9291186 0-3.462.5-8.782 1.607-10.167 1.8595053-.725835 3.6621883-1.5895719 5.393-2.584 1.7291535.9938081 3.5305614 1.8562375 5.389 2.58 1.111 1.379 1.611 6.706 1.611 10.171.0000863.4043959.2437275.7689341.6173454.923678.373618.1547439.8036603.0692299 1.0896546-.216678 3.94-3.94 4.3-7.514 3.949-9.769 1.8618309.7538505 3.8484624 1.1520586 5.857 1.174-.033.024-.06.05-.094.074-4.618 3.3-5.963 6.659-7.52 10.551-.8346118 2.2156368-1.8299258 4.3673602-2.978 6.438l-.007.013-.024.035c-.7818769 1.3473493-1.9654131 2.4165528-3.385 3.058zm15.732-16.835c-2.239945 1.4623802-4.3232756 3.1516305-6.217 5.041 1.1973194-2.6974325 3.1222376-5.0080961 5.559-6.673.9451873-.6740302 1.8024892-1.4634735 2.552-2.35.0330977-.0335022.0638377-.0692542.092-.107 1.0307473-1.2314887 1.8174388-2.6480764 2.318-4.174 1.2881507-.4274577 2.458599-1.1499989 3.418-2.11-.388 5.242-3.653 7.527-7.722 10.373z"/><path id="Shape" d="m14 18c4.746 0 6-3.271 6-5-.0003124-.1974794-.0587401-.3904993-.168-.555-2.142-3.213-8.805-5.192-9.557-5.406-.34917107-.09994322-.72507993-.00271221-.982.254-1.051 1.051-1.084 4.77-.063 7.233.67925007 2.0619962 2.5990513 3.4601911 4.77 3.474zm-3.429-8.775c2.14.708 5.944 2.253 7.4 4.067-.109.757-.715 2.708-3.971 2.708-1.1475688.0136021-2.1942206-.6538053-2.666-1.7-.761864-1.575531-1.0279094-3.3450989-.763-5.075z"/><path id="Shape" d="m45 18c2.1709487-.0138089 4.0907499-1.4120038 4.77-3.474 1.021-2.463.988-6.182-.063-7.233-.2569201-.25671221-.6328289-.35394322-.982-.254-.752.214-7.415 2.193-9.557 5.406-.1092599.1645007-.1676876.3575206-.168.555 0 1.729 1.254 5 6 5zm3.429-8.775c.2647023 1.7295756-.0013383 3.4987634-.763 5.074-.4714798 1.0465856-1.5181959 1.7144266-2.666 1.701-3.244 0-3.858-1.933-3.974-2.709 1.461-1.813 5.263-3.358 7.403-4.066z"/></g></g></g></svg>